<svg width="320" height="240" viewBox="0 0 320 240" fill="none" xmlns="http://www.w3.org/2000/svg">
<g opacity="0.2">
<mask id="mask0_13237_43384" style="mask-type:alpha" maskUnits="userSpaceOnUse" x="0" y="0" width="320" height="240">
<path opacity="0.48" fill-rule="evenodd" clip-rule="evenodd" d="M0 132.52C0 160.159 9.96359 185.344 26.3594 204.378C45.169 226.221 72.4448 239.954 102.848 240C116.136 240.02 128.841 237.409 140.512 232.642C146.546 230.177 153.3 230.46 159.144 233.381C166 236.803 173.676 238.721 181.782 238.721C185.131 238.721 188.41 238.391 191.582 237.765C200.636 235.985 208.875 231.772 215.642 225.805C219.894 222.054 225.34 220.168 230.906 220.175H231.001C249.394 220.175 266.478 214.353 280.663 204.378C293.344 195.471 303.699 183.247 310.598 168.894C316.614 156.387 320 142.259 320 127.305C320 76.0181 280.151 34.4356 231.001 34.4356C225.991 34.4356 221.082 34.8772 216.293 35.7012C203.612 14.28 180.904 0 154.999 0C144.062 0 133.694 2.54512 124.412 7.10748C115.586 11.4322 107.738 17.5775 101.319 25.0667C79.5209 25.4293 59.3653 32.86 42.8686 45.261C16.901 64.7702 0 96.5882 0 132.52Z" fill="url(#paint0_linear_13237_43384)"/>
</mask>
<g mask="url(#mask0_13237_43384)">
<rect width="320" height="240" fill="#0EA5E9"/>
</g>
</g>
<path opacity="0.08" d="M283.697 79.4672C283.697 76.1339 280.63 73.4672 277.297 74.0005C275.963 71.5339 273.297 70.0005 270.497 70.0672C273.363 55.8005 250.497 55.8005 253.363 70.0672C247.563 69.5339 243.297 76.3339 246.43 81.2672C247.83 83.6005 250.363 85.0005 253.097 84.9339H278.897V84.8672C281.63 84.6005 283.697 82.2672 283.697 79.4672ZM69.4966 134.001C69.5633 131.201 66.7633 128.801 64.03 129.334C62.8966 127.201 60.63 125.934 58.1633 126.001C60.6966 113.734 40.9633 113.734 43.4966 126.001C38.5633 125.534 34.8966 131.401 37.5633 135.601C38.7633 137.601 40.9633 138.801 43.2966 138.734H65.43V138.667C67.6966 138.401 69.4966 136.401 69.4966 134.001Z" fill="#0EA5E9"/>
<path opacity="0.12" d="M74.0299 94.8006C113.163 94.134 113.097 35.934 74.0299 35.334C34.9632 36.0007 34.9632 94.2006 74.0299 94.8006Z" fill="#FFAB00"/>
<path d="M74.0299 80.6668C94.5632 80.3335 94.5632 49.8001 74.0299 49.4668C53.4965 49.8001 53.4965 80.3335 74.0299 80.6668Z" fill="#FFD666"/>
<path d="M185.363 166.733C182.297 162.4 176.03 170.133 173.297 171.533C172.897 170.133 174.297 144 172.363 143.667C170.497 141.667 166.963 143.2 167.03 145.867C167.163 143.2 167.363 138.333 163.297 139.067C160.097 139.467 160.763 143.667 160.763 145.867C160.83 141.8 154.43 141.8 154.497 145.867V149.6C154.63 146.8 150.697 145.333 148.963 147.6C147.23 147.467 148.697 175.467 148.23 176.467C148.097 183.133 154.03 189.133 160.763 188.933C164.83 189.2 169.163 188.133 171.963 185L185.097 171C186.23 169.933 186.297 168 185.363 166.733Z" fill="#FDBAB9"/>
<path fill-rule="evenodd" clip-rule="evenodd" d="M165.83 141.534V163.401H167.096V142.134C167.163 140.201 165.23 138.668 163.363 139.068C164.696 139.068 165.83 140.201 165.83 141.534ZM159.563 145.268V163.401H160.83V145.868C160.896 144.001 158.963 142.401 157.163 142.801C158.43 142.801 159.563 144.001 159.563 145.268ZM153.296 163.401V149.001C153.363 147.668 152.163 146.534 150.83 146.468C152.696 146.068 154.563 147.668 154.496 149.534V163.334H153.296V163.401Z" fill="black" fill-opacity="0.24"/>
<path d="M163.297 126.533C118.23 127.4 111.963 191.2 155.963 200.8C209.963 208.667 217.763 129.267 163.297 126.533ZM130.963 164C130.297 137.067 164.163 121.467 184.23 139.4L138.697 184.933C133.697 179.133 130.963 171.667 130.963 164ZM163.297 196.333C155.63 196.333 148.163 193.6 142.363 188.6L187.897 143.067C205.897 163.133 190.23 197 163.297 196.333Z" fill="#0C4A6E"/>
<path d="M112.83 174.001H105.296V129.601C105.296 126.601 104.296 125.867 101.563 125.867C98.0298 126.067 92.3631 124.934 90.1631 128.534L53.4964 174.067C51.6964 176.267 52.2964 179.934 52.1631 182.601C52.1631 185.334 53.1631 186.334 55.8964 186.334H92.3631V200.801C91.7631 206.067 98.4297 204.267 101.496 204.534C104.23 204.534 105.23 203.534 105.23 200.801V186.334H112.83C115.763 186.334 116.563 185.334 116.563 182.601C116.363 179.401 117.896 173.401 112.83 174.001ZM92.2964 174.001H68.2964L92.2964 144.401V174.001ZM268.23 182.067C269.496 211.934 215.763 212.734 216.23 182.867H229.096C228.563 193.067 241.296 197.134 249.163 193.201C257.63 189.201 257.363 173.801 248.496 170.534C244.763 168.667 237.43 169.201 233.096 169.134C233.096 166.201 233.096 162.001 233.096 159.067C237.296 158.934 244.83 159.667 248.23 157.534C255.963 153.867 256.163 140.601 248.83 136.601C241.63 132.667 229.496 136.667 230.03 146.267H217.096C216.763 127.534 240.696 120.601 255.096 127.467C270.696 133.467 271.163 157.801 254.963 163.867C263.163 166.467 268.363 173.601 268.23 182.067Z" fill="url(#paint1_linear_13237_43384)"/>
<defs>
<linearGradient id="paint0_linear_13237_43384" x1="160" y1="240" x2="284.613" y2="16.8119" gradientUnits="userSpaceOnUse">
<stop/>
<stop offset="1" stop-opacity="0.01"/>
</linearGradient>
<linearGradient id="paint1_linear_13237_43384" x1="52.1631" y1="124.873" x2="117.141" y2="271.731" gradientUnits="userSpaceOnUse">
<stop offset="0.00212779" stop-color="#56CBFF"/>
<stop offset="1" stop-color="#0067ED"/>
</linearGradient>
</defs>
</svg>
