<svg width="320" height="240" viewBox="0 0 320 240" fill="none" xmlns="http://www.w3.org/2000/svg">
<g opacity="0.2">
<mask id="mask0_13237_43423" style="mask-type:alpha" maskUnits="userSpaceOnUse" x="0" y="0" width="320" height="240">
<path opacity="0.48" fill-rule="evenodd" clip-rule="evenodd" d="M0 132.52C0 160.159 9.96359 185.344 26.3594 204.378C45.169 226.221 72.4448 239.954 102.848 240C116.136 240.02 128.841 237.409 140.512 232.642C146.546 230.177 153.3 230.46 159.144 233.381C166 236.803 173.676 238.721 181.782 238.721C185.131 238.721 188.41 238.391 191.582 237.765C200.636 235.985 208.875 231.772 215.642 225.805C219.894 222.054 225.34 220.168 230.906 220.175H231.001C249.394 220.175 266.478 214.353 280.663 204.378C293.344 195.471 303.699 183.247 310.598 168.894C316.614 156.387 320 142.259 320 127.305C320 76.0181 280.151 34.4356 231.001 34.4356C225.991 34.4356 221.082 34.8772 216.293 35.7012C203.612 14.28 180.904 0 154.999 0C144.062 0 133.694 2.54512 124.412 7.10748C115.586 11.4322 107.738 17.5775 101.319 25.0667C79.5209 25.4293 59.3653 32.86 42.8686 45.261C16.901 64.7702 0 96.5882 0 132.52Z" fill="url(#paint0_linear_13237_43423)"/>
</mask>
<g mask="url(#mask0_13237_43423)">
<rect width="320" height="240" fill="#0EA5E9"/>
</g>
</g>
<path d="M194.934 177.599H190.067V177.199H194.534V137.466H177.4V78.6656H161.667V78.2656H177.8V137.066H194.934V177.599V177.599ZM97.3336 109.666H96.9336V95.599H107.934V82.9323H108.334V96.0656H97.3336V109.666Z" fill="#0EA5E9"/>
<path opacity="0.08" d="M161.667 74.866C161.667 76.9993 160.8 79.066 159.333 80.5327C157.8 82.066 155.8 82.866 153.667 82.866H98.4C95.4666 82.9327 92.7333 81.3994 91.2666 78.9327C89.8 76.3994 89.8 73.266 91.2666 70.7327C92.7333 68.1993 95.4666 66.666 98.4 66.7994H100.267C98.9333 61.9994 99.8666 56.866 102.867 52.9327C105.867 48.9993 110.6 46.666 115.533 46.666H120.2C126.133 46.666 131.533 49.9327 134.267 55.1993C135.6 54.5327 137.067 54.1327 138.6 54.1327H139.8C142.333 54.1327 144.733 55.1327 146.533 56.9327C148.333 58.7327 149.333 61.1327 149.333 63.666V64.1327C149.333 64.9993 149.2 65.9327 148.933 66.7327H153.533C158.067 66.866 161.667 70.466 161.667 74.866Z" fill="#0EA5E9"/>
<path d="M183.6 152.199V161.533C183.6 162.066 183.333 162.533 182.867 162.733C182.667 162.866 182.4 162.933 182.133 162.933C181.333 162.933 180.667 162.266 180.667 161.533V152.199C180.667 149.066 178.333 146.466 175.267 146.133C175 146.133 174.8 146.066 174.533 146.066C171.133 146.066 168.4 148.799 168.4 152.199V161.533C168.4 162.066 168.133 162.533 167.667 162.733C167.467 162.866 167.2 162.933 166.933 162.933C166.133 162.933 165.467 162.266 165.467 161.466V152.133C165.467 147.133 169.533 143.133 174.467 143.133C174.733 143.133 174.933 143.133 175.2 143.199C180 143.599 183.6 147.466 183.6 152.199Z" fill="white"/>
<path d="M183.6 152.198V161.532C183.8 161.865 183.733 162.332 183.4 162.598C183.067 162.865 182.667 162.865 182.333 162.598C182 162.332 181.933 161.865 182.133 161.532V152.198C182.133 148.798 179.4 146.065 176 146.065C175.733 146.065 175.533 146.065 175.267 146.132C175 146.132 174.8 146.065 174.533 146.065C171.133 146.065 168.4 148.798 168.4 152.198V161.532C168.6 161.865 168.533 162.332 168.2 162.598C167.867 162.865 167.467 162.865 167.133 162.598C166.8 162.332 166.733 161.932 166.933 161.532V152.198C166.667 149.065 168.2 146.065 170.867 144.398C173.533 142.732 176.933 142.732 179.6 144.398C182.333 145.998 183.867 149.065 183.6 152.198Z" fill="#C4CDD5"/>
<path d="M185.2 161.467H163.066C160.4 161.467 158.2 163.667 158.2 166.333V188.467C158.2 191.133 160.4 193.333 163.066 193.333H185.2C187.866 193.333 190.066 191.133 190.066 188.467V166.333C190.066 163.667 187.866 161.467 185.2 161.467Z" fill="#0C4A6E"/>
<path d="M185.2 161.467H168.6C165.933 161.467 163.733 163.667 163.733 166.333V188.467C163.733 191.133 165.933 193.333 168.6 193.333H185.2C187.866 193.333 190.066 191.133 190.066 188.467V166.333C190.066 163.667 187.866 161.467 185.2 161.467Z" fill="#0C4A6E"/>
<path d="M185.333 96.666H170.667C167.733 96.666 165.333 99.066 165.333 101.999V117.199C165.333 120.133 167.733 122.533 170.667 122.533H185.333C188.267 122.533 190.667 120.133 190.667 117.199V101.999C190.667 99.066 188.267 96.666 185.333 96.666Z" fill="url(#paint1_linear_13237_43423)"/>
<path opacity="0.08" d="M83.9997 86.4668H69.0664C67.9331 86.4668 67.0664 87.3335 67.0664 88.4668V110.333C67.0664 111.467 67.9331 112.333 69.0664 112.333H83.9997C85.1331 112.333 85.9997 111.467 85.9997 110.333V88.4668C85.9997 87.3335 85.0664 86.4668 83.9997 86.4668Z" fill="#0EA5E9"/>
<path d="M79.3997 90.5996H64.3997C63.2664 90.5996 62.3997 91.4663 62.3997 92.5996V114.466C62.3997 115.6 63.2664 116.466 64.3997 116.466H79.3331C80.4664 116.466 81.3331 115.6 81.3331 114.466V92.5996C81.3997 91.5329 80.4664 90.5996 79.3997 90.5996Z" fill="white"/>
<path opacity="0.48" d="M79.3997 90.5996H64.3997C63.2664 90.5996 62.3997 91.4663 62.3997 92.5996V114.466C62.3997 115.6 63.2664 116.466 64.3997 116.466H79.3331C80.4664 116.466 81.3331 115.6 81.3331 114.466V92.5996C81.3997 91.5329 80.4664 90.5996 79.3997 90.5996Z" fill="#0EA5E9"/>
<path d="M53.3333 162.332C53.4666 163.665 53.9333 164.932 54.6666 165.999C57.6 171.199 60.9333 176.332 65.4666 180.199C72.2 185.865 80.9333 188.332 89.4666 190.665C88.7333 190.265 87.8 186.399 87.4666 185.532C86.8 183.865 86.2 182.132 85.6 180.465C84.6 177.799 82.5333 175.665 80.4666 173.665C75.8666 169.199 70.2666 165.932 64.1333 164.065C60.6 162.932 56.9333 162.332 53.3333 162.332Z" fill="#0EA5E9"/>
<path d="M86.5334 165.199C85.8667 160.333 85.1334 155.466 83.2 150.933C81.2667 146.466 77.8667 142.333 73.2667 140.666C73.1334 147.599 73 154.533 72.8667 161.466C72.8 165.466 72.7334 169.533 73.8667 173.399C75.8667 180.133 82.8667 187.999 89.6 190.266C90.6 187.066 88.9334 182.133 88.4667 178.799L86.5334 165.199Z" fill="#0C4A6E"/>
<path d="M158.133 109.332H93.333C90.1997 109.332 87.733 111.865 87.733 114.932V127.665C87.733 130.799 90.2664 133.265 93.333 133.265H158.066C161.2 133.265 163.666 130.732 163.666 127.665V114.932C163.733 111.865 161.2 109.332 158.133 109.332ZM158.133 138.665H93.333C90.1997 138.665 87.733 141.199 87.733 144.265V156.999C87.733 160.132 90.2664 162.599 93.333 162.599H158.066C161.2 162.599 163.666 160.065 163.666 156.999V144.265C163.733 141.199 161.2 138.665 158.133 138.665ZM158.133 168.132H93.333C90.1997 168.132 87.733 170.665 87.733 173.732V186.465C87.733 189.599 90.2664 192.065 93.333 192.065H158.066C161.2 192.065 163.666 189.532 163.666 186.465V173.732C163.733 170.665 161.2 168.132 158.133 168.132Z" fill="#0C4A6E"/>
<path d="M158.4 109.332H97.6C94.4667 109.332 92 111.865 92 114.932V127.665C92 130.799 94.5333 133.265 97.6 133.265H158.333C161.467 133.265 163.933 130.732 163.933 127.665V114.932C164 111.865 161.467 109.332 158.4 109.332ZM164 145.065V156.265C164 157.932 163.333 159.599 162.067 160.799C160.8 161.999 159.133 162.665 157.333 162.665H98.6667C96.8667 162.665 95.2 161.999 93.9333 160.799C92.6667 159.599 92 157.999 92 156.265V145.065C92 141.532 95 138.665 98.6667 138.665H157.333C159.133 138.665 160.8 139.332 162.067 140.532C163.267 141.732 164 143.332 164 145.065ZM158.4 167.999H97.6C94.4667 167.999 92 170.532 92 173.599V186.332C92 189.465 94.5333 191.932 97.6 191.932H158.333C161.467 191.932 163.933 189.399 163.933 186.332V173.599C164 170.532 161.467 167.999 158.4 167.999Z" fill="url(#paint2_linear_13237_43423)"/>
<path d="M107.733 121.333C107.733 122.799 106.533 123.999 105.066 123.999C103.6 123.999 102.4 122.799 102.4 121.333C102.4 119.866 103.6 118.666 105.066 118.666C106.533 118.666 107.733 119.866 107.733 121.333ZM115.733 121.333C115.733 122.799 114.533 123.999 113.066 123.999C111.6 123.999 110.4 122.799 110.4 121.333C110.4 119.866 111.6 118.666 113.066 118.666C114.533 118.666 115.733 119.866 115.733 121.333ZM121.066 123.999C122.533 123.999 123.733 122.799 123.733 121.333C123.733 119.866 122.533 118.666 121.066 118.666C119.6 118.666 118.4 119.866 118.4 121.333C118.4 122.799 119.6 123.999 121.066 123.999ZM108 150.666C108 152.133 106.8 153.333 105.333 153.333C103.866 153.333 102.666 152.133 102.666 150.666C102.666 149.199 103.866 147.999 105.333 147.999C106.8 147.999 108 149.199 108 150.666ZM116 150.666C116 152.133 114.8 153.333 113.333 153.333C111.866 153.333 110.666 152.133 110.666 150.666C110.666 149.199 111.866 147.999 113.333 147.999C114.8 147.999 116 149.199 116 150.666ZM121.333 153.333C122.8 153.333 124 152.133 124 150.666C124 149.199 122.8 147.999 121.333 147.999C119.866 147.999 118.666 149.199 118.666 150.666C118.666 152.133 119.866 153.333 121.333 153.333ZM156 149.333H136C135.6 149.333 135.333 149.599 135.333 149.999V151.333C135.333 151.733 135.6 151.999 136 151.999H156C156.4 151.999 156.666 151.733 156.666 151.333V149.999C156.666 149.599 156.4 149.333 156 149.333ZM108 179.999C108 181.466 106.8 182.666 105.333 182.666C103.866 182.666 102.666 181.466 102.666 179.999C102.666 178.533 103.866 177.333 105.333 177.333C106.8 177.333 108 178.533 108 179.999ZM116 179.999C116 181.466 114.8 182.666 113.333 182.666C111.866 182.666 110.666 181.466 110.666 179.999C110.666 178.533 111.866 177.333 113.333 177.333C114.8 177.333 116 178.533 116 179.999ZM121.333 182.666C122.8 182.666 124 181.466 124 179.999C124 178.533 122.8 177.333 121.333 177.333C119.866 177.333 118.666 178.533 118.666 179.999C118.666 181.466 119.866 182.666 121.333 182.666ZM156 178.666H136C135.6 178.666 135.333 178.933 135.333 179.333V180.666C135.333 181.066 135.6 181.333 136 181.333H156C156.4 181.333 156.666 181.066 156.666 180.666V179.333C156.666 178.933 156.4 178.666 156 178.666Z" fill="#E0F2FE"/>
<path d="M176.267 178.466C176.6 177.266 175.733 175.999 175.467 174.799C175.4 174.599 175.4 174.333 175.467 174.133C175.6 173.133 176.467 172.399 177.467 172.399C178.467 172.399 179.333 173.133 179.467 174.133C179.533 174.333 179.467 174.599 179.467 174.799C179.267 175.999 178.4 177.333 178.733 178.533L179 179.399C179.333 180.399 178.533 181.466 177.467 181.466C176.4 181.466 175.667 180.466 175.933 179.466L176.267 178.466ZM172 105.866L178.133 102.666L184 105.866C184 105.866 182.933 113.733 178.267 115.999C178.267 115.999 172.533 113.799 172 105.866Z" fill="#0C4A6E"/>
<defs>
<linearGradient id="paint0_linear_13237_43423" x1="160" y1="240" x2="284.613" y2="16.8119" gradientUnits="userSpaceOnUse">
<stop/>
<stop offset="1" stop-opacity="0.01"/>
</linearGradient>
<linearGradient id="paint1_linear_13237_43423" x1="165.333" y1="109.599" x2="190.667" y2="109.599" gradientUnits="userSpaceOnUse">
<stop stop-color="#0F172A"/>
<stop offset="1" stop-color="#214089"/>
</linearGradient>
<linearGradient id="paint2_linear_13237_43423" x1="92" y1="109.332" x2="178.324" y2="172.292" gradientUnits="userSpaceOnUse">
<stop offset="0.00212779" stop-color="#56CBFF"/>
<stop offset="1" stop-color="#0067ED"/>
</linearGradient>
</defs>
</svg>
